 <svg width="49" height="49" viewBox="0 0 1000 1000" xmlns="http://www.w3.org/2000/svg"><path d=" M 650 259C 645 259 643 260 641 263C 639 266 638 270 638 275C 638 275 638 413 638 413C 638 413 475 413 475 413C 461 413 452 416 447 421C 441 426 438 435 438 450C 438 450 438 550 438 550C 438 550 438 550 438 550C 438 567 441 575 447 580C 452 585 461 587 475 588C 475 588 638 588 638 588C 638 588 638 725 638 725C 638 733 641 740 647 741C 653 742 668 740 691 716C 691 716 866 541 866 541C 866 541 866 541 866 541C 882 526 889 512 889 500C 889 488 882 475 866 459C 866 459 691 284 691 284C 671 264 657 259 650 259C 650 259 650 259 650 259M 650 234C 668 234 687 244 709 266C 709 266 884 441 884 441C 903 460 914 480 914 501C 914 521 902 541 884 559C 884 559 709 734 709 734C 682 760 660 770 641 765C 622 760 613 742 613 725C 613 725 613 613 613 613C 613 613 475 613 475 613C 475 613 475 612 475 612C 458 612 442 609 430 599C 418 588 413 571 413 550C 413 550 413 550 413 550C 413 550 413 450 413 450C 413 450 413 450 413 450C 413 431 418 414 429 403C 441 392 456 388 475 388C 475 388 475 388 475 388C 475 388 613 388 613 388C 613 388 613 275 613 275C 613 265 615 256 621 247C 628 239 638 234 650 234C 650 234 650 234 650 234M 250 212C 202 212 168 224 146 245C 124 267 112 300 112 348C 112 348 113 650 113 650C 113 698 124 731 146 753C 168 775 202 787 250 787C 250 787 375 787 375 787C 380 787 382 786 384 784C 386 782 388 779 388 775C 388 775 388 725 388 725C 388 720 386 717 384 715C 382 714 380 712 375 712C 375 712 250 712 250 712C 231 712 214 708 203 697C 192 685 188 669 188 650C 188 650 188 350 188 350C 188 330 192 314 203 303C 214 291 231 287 250 287C 250 287 375 287 375 287C 380 287 382 286 384 284C 386 282 388 279 388 275C 388 275 388 225 388 225C 388 220 386 217 384 215C 382 214 380 212 375 212C 375 212 250 212 250 212M 250 187C 250 187 375 187 375 187C 385 187 395 191 402 198C 409 205 413 214 413 225C 413 225 413 275 413 275C 413 285 409 295 402 302C 395 309 385 312 375 312C 375 312 250 312 250 312C 234 312 226 315 221 320C 216 325 213 334 213 350C 213 350 213 650 213 650C 213 665 216 674 221 679C 226 684 234 687 250 687C 250 687 375 687 375 687C 385 687 395 691 402 698C 409 705 413 714 413 725C 413 725 413 775 413 775C 413 785 409 795 402 802C 395 809 385 812 375 812C 375 812 250 812 250 812C 198 812 157 799 129 771C 101 743 88 702 88 650C 88 650 87 348 87 348C 87 295 100 255 128 227C 157 200 198 187 250 187C 250 187 250 187 250 187"/></svg> 