<svg width="29" height="29" viewBox="0 0 1000 1000" xmlns="http://www.w3.org/2000/svg"><path d="M 50 0C 22 0 0 22 0 50C 0 50 0 950 0 950C 0 978 22 1000 50 1000C 50 1000 950 1000 950 1000C 978 1000 1000 978 1000 950C 1000 950 1000 50 1000 50C 1000 22 978 0 950 0C 950 0 50 0 50 0C 50 0 50 0 50 0M 50 25C 50 25 950 25 950 25C 964 25 975 36 975 50C 975 50 975 950 975 950C 975 964 964 975 950 975C 950 975 50 975 50 975C 36 975 25 964 25 950C 25 950 25 50 25 50C 25 36 36 25 50 25C 50 25 50 25 50 25M 512 150C 512 150 512 487 512 487C 512 487 850 487 850 487C 850 487 850 512 850 512C 850 512 512 512 512 512C 512 512 512 850 512 850C 512 850 487 850 487 850C 487 850 487 512 487 512C 487 512 150 512 150 512C 150 512 150 487 150 487C 150 487 487 487 487 487C 487 487 487 150 487 150C 487 150 512 150 512 150"/></svg>