<svg width="29" height="29" viewBox="0 0 1000 1000" xmlns="http://www.w3.org/2000/svg"><path d="M 50 0C 22 0 0 22 0 50C 0 50 0 950 0 950C 0 978 22 1000 50 1000C 50 1000 950 1000 950 1000C 978 1000 1000 978 1000 950C 1000 950 1000 50 1000 50C 1000 22 978 0 950 0C 950 0 50 0 50 0C 50 0 50 0 50 0M 50 25C 50 25 950 25 950 25C 964 25 975 36 975 50C 975 50 975 950 975 950C 975 964 964 975 950 975C 950 975 50 975 50 975C 36 975 25 964 25 950C 25 950 25 50 25 50C 25 36 36 25 50 25C 50 25 50 25 50 25M 500 285C 503 285 507 287 509 289C 509 289 809 589 809 589C 812 592 814 597 812 601C 811 605 808 609 804 610C 799 611 795 610 791 607C 791 607 500 315 500 315C 500 315 209 607 209 607C 206 610 201 611 197 610C 193 609 189 605 188 601C 187 597 188 592 191 589C 191 589 491 289 491 289C 494 287 497 285 500 285C 500 285 500 285 500 285" transform="rotate(90,500,500)"/></svg>