 <svg width="49" height="49" viewBox="0 0 1000 1000" xmlns="http://www.w3.org/2000/svg"><path d="M 500 0C 224 0 0 224 0 500C 0 776 224 1000 500 1000C 776 1000 1000 776 1000 500C 1000 224 776 0 500 0C 500 0 500 0 500 0M 500 25C 762 25 975 238 975 500C 975 762 762 975 500 975C 238 975 25 762 25 500C 25 238 238 25 500 25C 500 25 500 25 500 25 M 502 117C 631 117 737 223 737 352C 737 482 631 588 501 588C 371 588 266 482 266 352C 266 222 371 117 501 117C 501 116 502 117 502 117C 502 117 502 117 502 117M 291 352C 291 468 385 563 501 563C 617 563 712 468 712 352C 712 236 617 142 501 142C 385 142 291 236 291 352C 291 352 291 352 291 352M 352 613C 353 613 353 613 354 613C 452 638 451 637 501 637C 550 637 552 638 651 613C 652 613 653 613 654 613C 706 613 743 618 773 635C 802 652 822 679 842 719C 844 724 844 728 841 732C 744 868 611 915 500 912C 364 913 231 842 163 737C 160 733 160 728 162 724C 182 685 202 656 231 638C 260 620 297 613 349 613C 349 612 349 612 349 612C 350 612 351 612 352 613C 352 613 352 613 352 613M 501 662C 452 662 446 662 349 638C 299 638 268 644 244 659C 222 673 205 695 188 729C 252 823 375 888 500 888C 500 887 500 887 500 888C 602 889 724 849 816 724C 799 690 782 669 760 657C 737 643 705 638 655 638C 558 662 549 662 501 662C 501 662 501 662 501 662"/></svg> 