 <svg width="24" height="24" viewBox="0 0 1000 1000" xmlns="http://www.w3.org/2000/svg"><path d="M 50 0C 22 0 0 22 0 50C 0 50 0 950 0 950C 0 978 22 1000 50 1000C 50 1000 950 1000 950 1000C 978 1000 1000 978 1000 950C 1000 950 1000 50 1000 50C 1000 22 978 0 950 0C 950 0 50 0 50 0C 50 0 50 0 50 0M 50 25C 50 25 950 25 950 25C 964 25 975 36 975 50C 975 50 975 950 975 950C 975 964 964 975 950 975C 950 975 50 975 50 975C 36 975 25 964 25 950C 25 950 25 50 25 50C 25 36 36 25 50 25C 50 25 50 25 50 25 M 300 287C 303 287 306 289 309 291C 309 291 500 482 500 482C 500 482 691 291 691 291C 693 289 697 287 700 287C 705 287 710 290 712 295C 714 300 713 305 709 309C 709 309 518 500 518 500C 518 500 709 691 709 691C 712 694 713 699 712 703C 711 708 708 711 703 712C 699 713 694 712 691 709C 691 709 500 518 500 518C 500 518 309 709 309 709C 306 712 301 713 297 712C 292 711 289 708 288 703C 287 699 288 694 291 691C 291 691 482 500 482 500C 482 500 291 309 291 309C 288 305 286 300 288 295C 290 290 295 287 300 287C 300 287 300 287 300 287"/></svg> 